<svg xmlns="http://www.w3.org/2000/svg" viewBox="0 0 340 93" width="340" height="93">
	<g id="Layer">
		<g id="Layer">
			<g id="Layer">
				<path id="Layer" class="shp0" fill="#40404a" d="M30.91 46.79C29.68 48.26 28.15 49.45 26.37 50.25C23.73 51.42 20.85 51.6 18.02 50.94C12.38 49.62 6.94 44.99 3.94 38.26C-0.57 28.13 2.16 17.07 10.04 13.57C15.21 11.26 21.32 12.78 26.17 16.97C28.32 18.81 30.22 21.18 31.69 23.96C31.97 24.48 32.23 25.01 32.47 25.55C35.96 33.39 35.11 41.77 30.91 46.79Z" />
				<path id="Layer" class="shp1" fill="#a6a7ab" d="M22.17 44.82C17.5 45.67 11.97 41.82 9.32 35.86C6.32 29.12 7.85 21.61 12.67 19.47C13.17 19.25 13.7 19.08 14.24 18.98C18.91 18.14 24.43 21.99 27.09 27.95C28.64 31.43 29.05 35.13 28.25 38.36C27.54 41.24 25.94 43.36 23.74 44.34C23.24 44.56 22.71 44.73 22.17 44.82L22.17 44.82Z" />
			</g>
			<g id="Layer">
				<path id="Layer" class="shp0" fill="#40404a" d="M90.22 50.25C82.33 46.74 79.6 35.7 84.11 25.56C88.63 15.41 98.66 10.05 106.54 13.57C114.43 17.08 117.16 28.12 112.65 38.26C108.13 48.4 98.1 53.76 90.22 50.25Z" />
				<path id="Layer" class="shp1" fill="#a6a7ab" d="M94.41 44.82C99.08 45.67 104.61 41.82 107.26 35.86C110.26 29.12 108.73 21.61 103.91 19.47C103.41 19.25 102.88 19.08 102.34 18.98C97.67 18.14 92.15 21.99 89.5 27.95C87.94 31.43 87.53 35.13 88.33 38.36C89.04 41.24 90.64 43.36 92.84 44.34C93.34 44.56 93.87 44.73 94.41 44.82L94.41 44.82Z" />
			</g>
			<path id="Layer" class="shp0" fill="#40404a" d="M99.4 42.63C99.4 43.13 99.39 43.64 99.37 44.14C99.29 46.46 99.02 48.73 98.56 50.94C98.36 51.94 98.12 52.92 97.84 53.9C97.31 55.77 96.64 57.6 95.86 59.35L95.31 60.52C94.08 63.08 92.58 65.48 90.87 67.71L90.87 67.71L90.84 67.74C90.03 68.79 89.17 69.79 88.27 70.75L79.68 80.8L79.64 80.79C74.76 87.27 67.02 91.46 58.29 91.46C49.08 91.46 40.98 86.79 36.17 79.7L36.14 79.7L29.95 72.41C27.83 70.39 25.94 68.15 24.28 65.73L24.23 65.67L24.24 65.67C23.13 64.03 22.13 62.32 21.26 60.52L20.72 59.35C19.94 57.6 19.27 55.77 18.73 53.9C18.46 52.92 18.22 51.94 18.01 50.94C17.56 48.73 17.29 46.46 17.2 44.14C17.18 43.64 17.17 43.13 17.17 42.63C17.17 35.1 19.2 28.03 22.74 21.96C23.35 20.91 24.01 19.89 24.71 18.9C25.18 18.24 25.67 17.6 26.17 16.97C33.7 7.55 45.29 1.52 58.29 1.52C71.28 1.52 82.87 7.55 90.41 16.97C90.91 17.6 91.4 18.24 91.86 18.9C92.57 19.89 93.22 20.91 93.84 21.96C97.38 28.03 99.4 35.1 99.4 42.63Z" />
			<path id="Layer" class="shp1" fill="#a6a7ab" d="M42.75 46.48C43.3 39.38 47.09 33.19 52.65 29.4C56.05 27.08 60.53 27.08 63.93 29.4C69.49 33.19 73.29 39.38 73.83 46.48C78.66 50.66 81.71 56.84 81.71 63.73C81.71 76.33 71.5 86.54 58.91 86.54C58.7 86.54 58.49 86.53 58.29 86.53C58.09 86.53 57.88 86.54 57.67 86.54C45.08 86.54 34.87 76.33 34.87 63.73C34.87 62.13 35.03 60.57 35.34 59.07C36.38 54.08 39.04 49.69 42.75 46.48Z" />
			<path id="Layer" class="shp0" fill="#40404a" d="M58.29 78.31C53.29 78.31 48.81 75.33 46.88 70.72C46.64 70.13 46.91 69.47 47.49 69.22C48.07 68.98 48.74 69.25 48.98 69.83C50.56 73.6 54.21 76.03 58.29 76.03C62.37 76.03 66.02 73.6 67.6 69.83C67.84 69.25 68.51 68.98 69.09 69.22C69.67 69.47 69.95 70.14 69.7 70.72C67.77 75.33 63.29 78.31 58.29 78.31Z" />
			<path id="Layer" class="shp1" fill="#a6a7ab" d="M67.94 50.31L76.56 50.31C84.04 50.31 90.11 44.24 90.11 36.76L90.11 34.66C90.11 27.17 84.04 21.1 76.56 21.1L67.94 21.1C66.07 21.1 64.28 21.48 62.66 22.17C57.79 24.23 54.38 29.05 54.38 34.66L54.38 36.76C54.38 44.24 60.45 50.31 67.94 50.31Z" />
			<path id="Layer" class="shp1" fill="#a6a7ab" d="M40.02 50.31L48.64 50.31C56.13 50.31 62.2 44.24 62.2 36.76L62.2 34.66C62.2 27.17 56.13 21.1 48.64 21.1L44.33 21.1L40.02 21.1C32.54 21.1 26.47 27.17 26.47 34.66L26.47 36.76C26.47 44.24 32.54 50.31 40.02 50.31Z" />
			<g id="Layer">
				<path id="Layer" class="shp0" fill="#40404a" d="M60.6 59.07C59.71 59.07 59 58.36 59 57.47C59 56.59 59.71 55.87 60.6 55.87C61.49 55.87 62.2 56.59 62.2 57.47C62.2 58.36 61.49 59.07 60.6 59.07Z" />
				<path id="Layer" class="shp0" fill="#40404a" d="M55.98 59.07C55.1 59.07 54.38 58.36 54.38 57.47C54.38 56.59 55.1 55.87 55.98 55.87C56.87 55.87 57.58 56.59 57.58 57.47C57.58 58.36 56.87 59.07 55.98 59.07Z" />
			</g>
		</g>
		<g id="Layer">
			<path id="Layer" class="shp2" fill="#ffffff" d="M42.87 42C39.39 42 36.58 39.19 36.58 35.71C36.58 32.23 39.39 29.42 42.87 29.42C46.35 29.42 49.16 32.23 49.16 35.71C49.16 39.19 46.35 42 42.87 42Z" />
			<path id="Layer" class="shp3" fill="#1d1814" d="M42.87 39.41C40.82 39.41 39.16 37.76 39.16 35.71C39.16 33.66 40.82 32 42.87 32C44.92 32 46.57 33.66 46.57 35.71C46.57 37.76 44.92 39.41 42.87 39.41Z" />
			<path id="Layer" class="shp2" fill="#ffffff" d="M44.91 34.69C44.91 35.98 43.72 35.71 43.89 35.71C43.33 35.71 42.87 35.25 42.87 34.69C42.87 34.12 43.33 33.67 43.89 33.67C44.45 33.67 44.91 34.12 44.91 34.69Z" />
		</g>
		<g id="Layer">
			<path id="Layer" class="shp2" fill="#ffffff" d="M73.71 42C70.23 42 67.42 39.19 67.42 35.71C67.42 32.23 70.23 29.42 73.71 29.42C77.19 29.42 80 32.23 80 35.71C80 39.19 77.19 42 73.71 42Z" />
			<path id="Layer" class="shp3" fill="#1d1814" d="M73.71 39.41C71.66 39.41 70.01 37.76 70.01 35.71C70.01 33.66 71.66 32 73.71 32C75.76 32 77.42 33.66 77.42 35.71C77.42 37.76 75.76 39.41 73.71 39.41Z" />
			<path id="Layer" class="shp2" fill="#ffffff" d="M75.75 34.69C75.75 35.98 74.57 35.71 74.73 35.71C74.17 35.71 73.71 35.25 73.71 34.69C73.71 34.12 74.17 33.67 74.73 33.67C75.3 33.67 75.75 34.12 75.75 34.69Z" />
		</g>
	</g>
	<path id="Chimpi " fill="#2c2123" aria-label="Chimpi"  d="M156.38 38.18Q156.38 36.92 155.3 36.02Q154.28 35.12 152.84 35.12Q149.96 35.12 148.1 38.42Q146.24 41.66 146.24 45.8Q146.24 48.98 147.44 51.56Q148.64 54.08 150.92 55.58Q153.2 57.08 156.2 57.08Q158.42 57.08 160.46 56.24Q162.5 55.34 163.76 54.32Q165.02 53.24 166.34 52.4Q167.72 51.5 168.74 51.5Q170.06 51.5 171.02 52.58Q171.98 53.6 171.98 54.74Q171.98 56 171.2 57.68Q170.48 59.36 168.86 61.28Q167.24 63.14 165.08 64.76Q162.92 66.32 159.68 67.4Q156.5 68.42 152.96 68.42Q148.28 68.42 144.26 67.04Q140.3 65.6 137.36 63.02Q134.42 60.38 132.74 56.42Q131.06 52.46 131.06 47.54Q131.06 37.82 136.88 32.18Q142.7 26.54 152.12 26.54Q156.92 26.54 161 28.16Q165.08 29.78 167.48 32.66Q169.88 35.54 169.88 38.96Q169.88 42.92 167.24 46.16Q164.6 49.34 160.4 49.34Q158 49.34 156.08 48.02Q154.16 46.7 154.16 44.24Q154.16 43.1 155.24 41.06Q156.38 39.02 156.38 38.18ZM196.76 63.02L196.7 51.92Q196.7 48.5 194.06 48.5Q193.58 48.5 193.16 48.62Q192.8 48.74 192.44 48.92Q192.14 49.1 191.84 49.46Q191.6 49.76 191.36 50.18Q191.18 50.54 191.06 51.08Q191 51.62 191 52.28L191 58.88Q191 63.8 189.38 65.9Q187.76 67.94 184.4 67.94Q181.04 67.94 179.48 66.08Q177.92 64.16 177.92 59.36L177.8 33.8Q177.8 30.08 179.6 28.34Q181.4 26.6 184.4 26.6Q186.02 26.6 187.04 26.84Q188.12 27.02 189.08 27.74Q190.04 28.4 190.52 29.78Q191 31.16 191 33.26L191 41.96Q195.44 39.26 201.8 39.26Q204.68 39.26 206.42 40.76Q208.16 42.2 209 45.38Q209.84 48.56 209.84 53.72Q209.84 57.44 209.66 59.84Q209.48 62.18 209.06 63.92Q208.7 65.6 207.86 66.44Q207.02 67.28 205.88 67.64Q204.8 68 203.06 68Q199.7 68 198.2 66.8Q196.76 65.54 196.76 63.02ZM228.02 45.98L228.02 61.58Q228.02 65.18 226.52 66.62Q225.02 68 221.24 68Q217.7 68 216.38 66.38Q215.12 64.7 215.12 60.92L215.12 46.16Q215.12 43.1 216.74 41.24Q218.42 39.38 221.18 39.38Q224.42 39.38 226.22 40.82Q228.02 42.2 228.02 45.98ZM215 31.04Q215 33.44 216.86 34.52Q218.72 35.6 221.54 35.6Q224.72 35.6 226.4 34.58Q228.08 33.56 228.08 31.04Q228.08 26.48 221.54 26.48Q218.42 26.48 216.68 27.74Q215 29 215 31.04ZM269.06 63.02L269.06 52.16Q269.06 48.8 266.36 48.8Q265.16 48.8 264.56 50.18Q263.96 51.56 263.96 53.66Q263.96 56.84 263.84 58.94Q263.78 61.04 263.48 62.72Q263.18 64.4 262.76 65.36Q262.34 66.32 261.62 66.98Q260.9 67.58 260 67.82Q259.1 68 257.72 68Q255.62 68 254.3 67.4Q253.04 66.8 252.5 65.72Q251.96 64.64 251.96 63.02L251.96 52.16Q251.96 48.8 249.26 48.8Q248.18 48.8 247.46 50.06Q246.8 51.26 246.8 53.24L246.8 61.58Q246.8 65.18 245.3 66.62Q243.8 68 240.02 68Q236.48 68 235.16 66.38Q233.9 64.7 233.9 60.92L233.9 46.16Q233.9 43.1 235.52 41.24Q237.2 39.38 239.96 39.38Q244.88 39.38 246.2 42.56Q248.48 40.88 250.64 40.22Q252.86 39.56 255.8 39.56Q260.24 39.56 262.22 43.4Q262.52 43.16 262.82 42.92Q267.44 39.56 274.16 39.56Q278.42 39.56 280.28 42.8Q282.14 46.04 282.14 53.66Q282.14 56.84 282.02 58.94Q281.96 61.04 281.66 62.72Q281.36 64.4 280.88 65.36Q280.46 66.32 279.62 66.98Q278.84 67.58 277.82 67.82Q276.86 68 275.36 68Q273.08 68 271.64 67.4Q270.26 66.8 269.66 65.72Q269.06 64.64 269.06 63.02ZM301.04 48.14L301.04 59.3Q302.06 60.98 303.74 60.98Q305.36 60.98 306.26 58.82Q307.16 56.66 307.16 53.9Q307.16 50.96 306.2 48.68Q305.24 46.4 303.68 46.4Q302.06 46.4 301.04 48.14ZM301.04 66.32L301.04 71.48Q301.04 76.34 299.42 78.44Q297.8 80.48 294.44 80.48Q291.08 80.48 289.52 78.62Q287.96 76.7 287.96 71.9L287.84 46.58Q287.84 42.86 289.64 41.12Q291.44 39.38 294.44 39.38Q296.78 39.38 298.22 39.98Q299.66 40.52 300.38 42.2Q304.52 38.96 309.26 38.96Q314.06 38.96 317.12 42.98Q320.18 47 320.18 53.9Q320.18 60.62 317.06 64.52Q313.94 68.36 309.2 68.36Q304.64 68.36 301.04 66.32ZM337.88 45.98L337.88 61.58Q337.88 65.18 336.38 66.62Q334.88 68 331.1 68Q327.56 68 326.24 66.38Q324.98 64.7 324.98 60.92L324.98 46.16Q324.98 43.1 326.6 41.24Q328.28 39.38 331.04 39.38Q334.28 39.38 336.08 40.82Q337.88 42.2 337.88 45.98ZM324.86 31.04Q324.86 33.44 326.72 34.52Q328.58 35.6 331.4 35.6Q334.58 35.6 336.26 34.58Q337.94 33.56 337.94 31.04Q337.94 26.48 331.4 26.48Q328.28 26.48 326.54 27.74Q324.86 29 324.86 31.04Z" />
</svg>